<svg width="24" height="24" viewBox="0 0 24 24" xmlns="http://www.w3.org/2000/svg">
<rect x="3" y="6" width="3" height="3" fill="#0006"/>
<rect x="6" y="9" width="3" height="3" fill="#0006"/>
<rect x="9" y="12" width="3" height="3" fill="#0006"/>
<rect x="12" y="15" width="3" height="3" fill="#0006"/>
<rect x="15" y="18" width="3" height="3" fill="#0006"/>
<rect x="18" y="21" width="3" height="3" fill="#0006"/>

<rect x="18" y="6" width="3" height="3" fill="#0006"/>
<rect x="15" y="9" width="3" height="3" fill="#0006"/>
<rect x="12" y="12" width="3" height="3" fill="#0006"/>
<rect x="9" y="15" width="3" height="3" fill="#0006"/>
<rect x="6" y="18" width="3" height="3" fill="#0006"/>
<rect x="3" y="21" width="3" height="3" fill="#0006"/>

<rect x="3" y="3" width="3" height="3" fill="#fff"/>
<rect x="6" y="6" width="3" height="3" fill="#fff"/>
<rect x="9" y="9" width="3" height="3" fill="#fff"/>
<rect x="12" y="12" width="3" height="3" fill="#fff"/>
<rect x="15" y="15" width="3" height="3" fill="#fff"/>
<rect x="18" y="18" width="3" height="3" fill="#fff"/>

<rect x="18" y="3" width="3" height="3" fill="#fff"/>
<rect x="15" y="6" width="3" height="3" fill="#fff"/>
<rect x="12" y="9" width="3" height="3" fill="#fff"/>
<rect x="9" y="12" width="3" height="3" fill="#fff"/>
<rect x="6" y="15" width="3" height="3" fill="#fff"/>
<rect x="3" y="18" width="3" height="3" fill="#fff"/>
</svg>